<svg xmlns="http://www.w3.org/2000/svg" width="162.109" height="180.121" viewBox="0 0 162.109 180.121"><path d="M403,86h6a3,3,0,0,0,0-6h-6a3,3,0,1,0,0,6Z" transform="translate(-261.907 -55.984)"/><path d="M371,118h18.012a3,3,0,0,0,0-6H371a3,3,0,1,0,0,6Z" transform="translate(-241.915 -75.976)"/><ellipse cx="3.5" cy="3" rx="3.5" ry="3" transform="translate(125.454 23.981)"/><path d="M336.535,220.728A3,3,0,0,0,339,222.02h30.02a3,3,0,0,0,2.685-4.345L362.7,199.663a3,3,0,0,0-5.37,0l-2.5,4.993-4.015-10.709a3,3,0,0,0-5.622,0l-9.006,24.016A3,3,0,0,0,336.535,220.728Zm23.481-13.009,4.149,8.3h-5.07l-1.383-3.688Zm-12.008-4.167,4.674,12.464h-9.348Z" transform="translate(-221.924 -125.955)"/><path d="M128.065,193.119V172.1h63.042a3,3,0,0,0,3-3V19a3,3,0,0,0-3-3h-90.06a3,3,0,0,0-3,3V40.016H35a3,3,0,0,0-3,3v150.1a3,3,0,0,0,3,3h90.06A3,3,0,0,0,128.065,193.119Zm-.881-152.225-.878-.878h4.761a3.005,3.005,0,0,1,3,3v3h-6v-3a2.993,2.993,0,0,0-.881-2.124Zm6.885,11.13V64.032h-6V52.024ZM188.1,22V166.1h-60.04V154.093h27.018a3,3,0,1,0,0-6H128.065v-6h39.026a3,3,0,0,0,0-6H128.065V100.056h9.006a3,3,0,0,0,0-6h-9.006v-6h9.006a3,3,0,1,0,0-6h-9.006V70.036H142.5a9.59,9.59,0,0,0,9.579-9.579V55.6A9.59,9.59,0,0,0,142.5,46.02h-2.429v-3a9.016,9.016,0,0,0-9.006-9.006h-6a9.014,9.014,0,0,0-3.88.881L108.294,22ZM140.073,64.032V52.024H142.5a3.579,3.579,0,0,1,3.575,3.575v4.858a3.579,3.579,0,0,1-3.575,3.575ZM104.048,26.249l13.767,13.767H104.048ZM38,46.02H49.4L38,59.044Zm84.056,144.1H38V68.162L57.378,46.02h64.682Z" transform="translate(-32 -16)"/><path d="M216.683,240.007a8.912,8.912,0,0,0-7.543,4.552,8.71,8.71,0,0,0,0,8.612l5.254,9.32a3,3,0,0,0,5.23,0l5.254-9.32a8.71,8.71,0,0,0,0-8.612,8.913,8.913,0,0,0-7.547-4.552C217.115,240,216.9,240,216.683,240.007Zm2.959,7.495a2.732,2.732,0,0,1,0,2.72l-2.639,4.681-2.639-4.681a2.732,2.732,0,0,1,0-2.72,2.918,2.918,0,0,1,2.5-1.494l.131,0h.128A2.92,2.92,0,0,1,219.642,247.5Z" transform="translate(-141.957 -155.946)"/><path d="M96.157,172.007H86v-3a3,3,0,1,0-6,0v6a3,3,0,0,0,3,3H96.157l-3.832,7.663a3,3,0,1,0,5.37,2.685l5.174-10.349h7.151a3,3,0,0,0,0-6h-7.151L97.7,161.658a3,3,0,1,0-5.37,2.685Z" transform="translate(-61.988 -105.963)"/><path d="M96,293.014A21.014,21.014,0,1,0,117.014,272,21.014,21.014,0,0,0,96,293.014ZM117.014,278A15.01,15.01,0,1,1,102,293.014,15.01,15.01,0,0,1,117.014,278Z" transform="translate(-71.984 -175.935)"/><path d="M155.107,247.242a3,3,0,1,0,1.8-5.73A33.017,33.017,0,0,0,147,240a3,3,0,0,0,0,6,27.008,27.008,0,0,1,8.105,1.238Z" transform="translate(-101.972 -155.944)"/><path d="M127.038,280.018a3,3,0,0,0-3,3,27.018,27.018,0,1,1-43.229-21.615,3,3,0,1,0-3.606-4.8A33.022,33.022,0,1,0,130.04,283.02,3,3,0,0,0,127.038,280.018Z" transform="translate(-51.988 -165.942)"/><path d="M173.014,448H155a3,3,0,1,0,0,6h18.012a3,3,0,0,0,0-6Z" transform="translate(-106.97 -285.891)"/><path d="M113.006,448h-6a3,3,0,0,0,0,6h6a3,3,0,0,0,0-6Z" transform="translate(-76.982 -285.891)"/><path d="M399.01,368H387a3,3,0,1,0,0,6H399.01a3,3,0,1,0,0-6Z" transform="translate(-251.911 -235.911)"/><path d="M379.018,304H355a3,3,0,0,0,0,6h24.016a3,3,0,0,0,0-6Z" transform="translate(-231.919 -195.927)"/><ellipse cx="2.5" cy="3" rx="2.5" ry="3" transform="translate(103.454 89.981)"/><ellipse cx="2.5" cy="3" rx="2.5" ry="3" transform="translate(144.454 119.981)"/><path d="M313.006,304h-6a3,3,0,1,0,0,6h6a3,3,0,0,0,0-6Z" transform="translate(-201.931 -195.927)"/><path d="M371,150h18.012a3,3,0,0,0,0-6H371a3,3,0,1,0,0,6Z" transform="translate(-241.915 -95.968)"/><path d="M163,134h24.016a3,3,0,1,0,0-6H163a3,3,0,0,0,0,6Z" transform="translate(-111.968 -85.972)"/><path d="M217.006,166a3,3,0,1,0,0-6h-6a3,3,0,1,0,0,6Z" transform="translate(-141.956 -105.964)"/></svg>