<svg xmlns="http://www.w3.org/2000/svg" width="180.121" height="180.121" viewBox="0 0 180.121 180.121"><path d="M179.393,405.4,160.419,380.72a3.513,3.513,0,0,0-2.442-1.358,82.408,82.408,0,0,1-25.269-6.207c-4.887-1.943-9.938-3.952-16.458-3.952-9.93,0-17.521,5.295-22.67,11.3v-.131c2.868-6.613,10.513-17.047,22.389-17.047,5.109,0,9.088,1.583,13.7,3.416a87.992,87.992,0,0,0,15.633,4.9,3.518,3.518,0,1,0,1.447-6.885,80.773,80.773,0,0,1-14.482-4.558c-4.837-1.924-9.839-3.914-16.3-3.914-12.364,0-21.065,8.285-25.907,15.831-4.841-7.546-13.543-15.831-25.908-15.831-6.456,0-11.46,1.99-16.3,3.915a81.473,81.473,0,0,1-24.983,6.136,3.518,3.518,0,1,0,.7,7,88.819,88.819,0,0,0,26.889-6.6c4.608-1.833,8.588-3.416,13.7-3.416,11.877,0,19.524,10.436,22.39,17.049v.129c-5.151-6-12.74-11.3-22.672-11.3-6.518,0-11.571,2.011-16.46,3.955a82.4,82.4,0,0,1-25.266,6.206A3.518,3.518,0,0,0,19.7,380.72L.731,405.4a3.517,3.517,0,0,0,2.788,5.662H176.6a3.517,3.517,0,0,0,2.788-5.662ZM116.25,376.237c5.171,0,9.2,1.6,13.86,3.456a88.945,88.945,0,0,0,25.65,6.51l13.665,17.778c-23.511-.507-34.67-4.946-42.2-7.942-4.371-1.738-7.259-2.887-10.973-2.887-6.5,0-10.958,4.88-12.8,9.071l-.049.1-.8,1.705H93.58V393.5c2.9-6.692,10.641-17.264,22.67-17.264ZM24.363,386.2a89,89,0,0,0,25.653-6.511c4.66-1.854,8.686-3.455,13.856-3.455,12.03,0,19.772,10.572,22.672,17.264v10.528H77.528l-.8-1.705-.049-.1c-1.848-4.191-6.3-9.071-12.8-9.071-3.715,0-6.6,1.149-10.973,2.887-7.532,3-18.692,7.435-42.2,7.942ZM55.5,402.577c3.873-1.54,6.005-2.388,8.37-2.388,3.036,0,4.942,2.388,5.821,3.841H51.779c1.338-.5,2.57-.994,3.723-1.453Zm54.929,1.453c.879-1.453,2.786-3.841,5.82-3.841,2.366,0,4.5.848,8.373,2.39,1.152.458,2.384.947,3.721,1.451Zm0,0" transform="translate(-0.001 -230.944)"/><path d="M438.811,391.79l.128.012c.117.011.234.018.348.018a3.518,3.518,0,0,0,.341-7.02l-.125-.012a3.518,3.518,0,1,0-.691,7Zm0,0" transform="translate(-282.381 -249.409)"/><path d="M215.769,86.557a3.518,3.518,0,0,0-3.177,4.039c1.458,9.5,6.512,15.986,13.892,18.211q-.253,2-.466,4l-1.873,17.863a3.518,3.518,0,0,0,3.132,3.866,3.39,3.39,0,0,0,.371.019,3.518,3.518,0,0,0,3.495-3.151l1.873-17.863q.2-1.948.451-3.882c16.364-.2,26.355-10.636,31.356-32.7.557-2.454,1.231-5.313,2.008-8.5a3.516,3.516,0,0,0-1.391-3.708l1.384-.792a3.51,3.51,0,0,0,1.666-2.2C274.635,37.3,283.634,4.784,283.725,4.458A3.518,3.518,0,0,0,280.132.007c-1.191.067-29.454,2.109-52.685,39.9-.289.469-.569.933-.847,1.4a3.522,3.522,0,0,0-.456,2.372l1.762,10.847h-5.974a3.519,3.519,0,0,0-3.236,2.137c-3.767,8.827-5.931,17.112-6.434,24.629a3.517,3.517,0,0,0,1,2.7ZM262.031,58.6l-9.4,5.369a3.518,3.518,0,0,0,1.509,6.565l4.872.327c-.388,1.633-.741,3.151-1.057,4.545C252.882,97.806,243.5,102.23,234.5,102.6a179.647,179.647,0,0,1,38.209-84.521c-3.07,11.324-7.26,26.992-10.675,40.513Zm-37.747,2.971h7.757a3.519,3.519,0,0,0,3.473-4.083L233.3,43.831c.047-.078.095-.155.143-.234,11.091-18.045,23.319-27.025,31.624-31.382a56.481,56.481,0,0,1,5.494-2.523,188,188,0,0,0-43.042,92.02c-3.831-1.569-5.886-4.928-6.988-8.134h3.6A3.518,3.518,0,0,0,226.64,87.6l-7.228-7.382a69.346,69.346,0,0,1,4.873-18.651Zm0,0" transform="translate(-137.584 -0.001)"/></svg>