<svg xmlns="http://www.w3.org/2000/svg" width="134.824" height="145.427" viewBox="0 0 134.824 145.427"><defs><style>.a{fill:#fff;}</style></defs><g transform="translate(-238.111 899.002)"><path class="a" d="M509.263-898.789c-.276.447.361.829,1.552.957a19.636,19.636,0,0,1,4.4,1.106c3.679,1.4,4.954,1.935,6.911,2.871a28.214,28.214,0,0,1,2.764,1.467c.3.234,1.4,1.042,2.445,1.829a44.578,44.578,0,0,1,3.508,2.892,39.768,39.768,0,0,1,6.634,8.782,40.5,40.5,0,0,1,2.913,7.23,32.965,32.965,0,0,1,1.233,10.717,25.043,25.043,0,0,1-1.084,7.336c-.532,2.084-1.233,4.487-1.531,5.316a30.913,30.913,0,0,1-3.3,6.124,12.683,12.683,0,0,0-1.68,2.871c0,.085.234-.213.532-.659.3-.425.659-.787.808-.766q.287,0,0,.128a.412.412,0,0,0-.276.361c0,.192.276.234,1.063.128.766-.106,1.127-.064,1.34.17.276.255.34.191.6-.361.17-.361.361-.659.446-.659.276,0,3.4-4.912,4.1-6.464.808-1.744,1.446-3.189,2.148-4.742a28.459,28.459,0,0,0,1.084-3.3,21.317,21.317,0,0,0,.659-5.7,47.08,47.08,0,0,0-.617-9.441c-.106-.362-.34-1.3-.489-2.063a33.816,33.816,0,0,0-2.786-7.166c-.851-1.425-1.3-2.084-4.4-6.422a38.026,38.026,0,0,0-5.8-5.486,47.936,47.936,0,0,0-10.738-5.465,43.13,43.13,0,0,0-5.295-1.276C513.218-899.023,509.5-899.172,509.263-898.789Z" transform="translate(-213.445 0)"/><path class="a" d="M448.238-825.489a32.906,32.906,0,0,0-8.059,2.849c-6.507,3.3-12.546,8.25-14.821,12.184a60.748,60.748,0,0,0-3.7,7.421c-.34,1.021-2.063,7.57-2.445,9.356a38.053,38.053,0,0,0-.213,4.359c0,5.954.872,9.632,3.764,15.48a25.671,25.671,0,0,0,3.742,5.954c1.169,1.488,2.573,3.1,3.1,3.615a43.4,43.4,0,0,0,13.269,8.25,38.868,38.868,0,0,0,16.416,2.233l1.276-.149-1.7-.17a42.951,42.951,0,0,1-7.123-1.4c-.872-.255-1.829-.51-2.126-.574s-1.573-.553-2.871-1.063c-2.126-.872-3.232-1.488-7.549-4.189-2.594-1.616-8.867-8.293-9.994-10.653-.064-.106-.362-.617-.68-1.106a40.283,40.283,0,0,1-2.063-4.891,29.386,29.386,0,0,1-2.36-12.907v-4l1.084-4.274c.6-2.36,1.361-4.976,1.68-5.805a33.961,33.961,0,0,1,4.572-7.527c4.912-5.869,12.035-10.908,17.925-12.652a3.164,3.164,0,0,0,1.318-.574C450.683-825.957,450.236-825.914,448.238-825.489Z" transform="translate(-142.425 -57.586)"/><path class="a" d="M486.131-786.477a43.553,43.553,0,0,0-13.63,5.784,14.894,14.894,0,0,1-2.956,1.616c-2.063.6-4.189,2.169-3.955,2.934.149.468.021.638-.936,1.425-2.892,2.36-7.655,7.251-7.655,7.846,0,.425,1.722,1.85,2.233,1.85.638,0,1.063-.4,3.466-3.19,2.169-2.53,3.594-3.955,3.764-3.785a12.086,12.086,0,0,1,.468,1.935l.362,1.807-1.786,2.19a25.268,25.268,0,0,0-4.465,7.421c-.659,1.892-.617,2.4.149,2.913.744.489,2.063.255,5.1-.872,2.148-.808,3.253-1.021,3.253-.659,0,.021.085.51.191,1.084s.361,2.467.553,4.231c.532,4.912.7,5.21,3.041,5.21,1.361,0,1.85-.3,1.382-.914a2.268,2.268,0,0,1-.362-.787c-.106-.447-.723-5.677-1.127-9.7l-.106-1.063,3.041-1.68c1.68-.914,3.615-2.02,4.274-2.424.68-.425,2-1.254,2.956-1.829,5.295-3.275,11.8-8.654,13.588-11.291,1.488-2.148,2.063-4.7,1.361-6.145-1.148-2.445-5.146-4.38-8.91-4.338A20.265,20.265,0,0,0,486.131-786.477Zm6.23,2.615c2.615.936,3.7,3.041,2.828,5.486a27.216,27.216,0,0,1-4.487,6.1c-4.359,3.976-11.759,8.761-15.99,10.355-1.786.68-1.892.659-2.041-.3-.064-.425-.447-2.934-.872-5.571-.4-2.637-.808-5.422-.893-6.209l-.149-1.4.744-.51c.425-.255,1.318-.872,2-1.361.7-.468,2.807-1.68,4.7-2.679C484.9-783.5,489.661-784.819,492.362-783.862Zm-24.411,20.371c.3,1.829.532,3.445.532,3.594,0,.17-.468.213-1.573.149-1.318-.064-1.68-.149-2.126-.574-.659-.638-.68-1.063-.128-2.552.914-2.36,2.211-4.487,2.573-4.125A23.25,23.25,0,0,1,467.951-763.491Z" transform="translate(-172.345 -88.262)"/><path class="a" d="M536.341-427.122c-.468.149-.872.3-.872.3a4.007,4.007,0,0,0-.425.574c-.361.532-.4,1.212-.51,7.123-.128,7.251-.128,7.251-1.51,7.251-.787,0-1.17-.425-1.467-1.659-.4-1.595-.808-2.233-1.637-2.573a2.546,2.546,0,0,0-2.764.447c-.574.468-.6.6-.574,2.275a5.43,5.43,0,0,0,.51,2.807c1.191,2.467,3.083,3.423,6.443,3.275,2.977-.149,4.657-1.148,5.72-3.466.468-1.021.489-1.276.553-7.8.064-5.8.021-6.826-.276-7.379A2.429,2.429,0,0,0,536.341-427.122Z" transform="translate(-227.127 -371.388)"/><path class="a" d="M691.825-427.228c-4.742.68-7.825,4.593-7.825,9.973a10.323,10.323,0,0,0,2.594,7.357c1.935,2.041,3.955,2.764,7.379,2.594,3.041-.149,4.933-1.106,6.421-3.3,1.978-2.871,1.276-5.8-1.382-5.8-1,0-1.744.68-2.445,2.233a5.007,5.007,0,0,1-1.169,1.7,4.084,4.084,0,0,1-4.359-.043,5.133,5.133,0,0,1-1.084-1.467c-.468-.914-.531-1.318-.51-3.19a5.717,5.717,0,0,1,.574-3.3c.978-2,2.828-2.764,4.678-1.935a4.1,4.1,0,0,1,1.935,1.914c1.042,1.616,1.212,1.744,2.615,1.744,1.829,0,2.615-1.531,1.978-3.87a8.3,8.3,0,0,0-3.062-3.445A10.54,10.54,0,0,0,691.825-427.228Z" transform="translate(-351.076 -371.387)"/><path class="a" d="M438.418-426.647a8.526,8.526,0,0,0-6.081,6.358,19.432,19.432,0,0,0,0,6.656,8.647,8.647,0,0,0,6.294,6.379,13.846,13.846,0,0,0,6.868-.34c3.572-1.361,5.529-4.678,5.55-9.356,0-5.082-2.084-8.293-6.23-9.569A15.121,15.121,0,0,0,438.418-426.647Zm5.039,4.742a4.139,4.139,0,0,1,1.425,1.425,4.713,4.713,0,0,1,.723,2.913c.106,2.254-.17,3.445-1.063,4.529a3.567,3.567,0,0,1-3.041,1.467c-2.488,0-3.934-1.722-4.1-4.891-.213-3.806,1.51-6.145,4.359-5.933A5.374,5.374,0,0,1,443.458-421.905Z" transform="translate(-152.7 -371.692)"/><path class="a" d="M265.918-425.635a2.338,2.338,0,0,0-1.574,1.3c-.17.425-.234,3.041-.191,8.846l.064,8.25.744.617a2.693,2.693,0,0,0,4.083-.723,13.168,13.168,0,0,0,.383-3.126l.106-2.658,2.552-.128c2.828-.149,3.955-.468,5.21-1.467a6.662,6.662,0,0,0,1.914-6.4,5.509,5.509,0,0,0-3.3-4.061c-.978-.447-1.382-.489-5.316-.532C268.257-425.742,266.152-425.7,265.918-425.635Zm7.591,4.933a2.066,2.066,0,0,1-.064,2.488c-.34.319-.851.425-2.233.489l-1.786.064v-3.721l1.85.106C272.85-421.191,273.169-421.106,273.509-420.7Z" transform="translate(-20.494 -372.64)"/><path class="a" d="M347.646-425.691c-1.425.617-1.446.659-1.51,8.824-.043,4.04,0,7.761.064,8.272a2.731,2.731,0,0,0,.851,1.659,1.906,1.906,0,0,0,1.786.7,2.09,2.09,0,0,0,1.765-.617l.7-.617.106-3.19a21.247,21.247,0,0,1,.255-3.338c.3-.319,1.659.149,2.275.766A21.237,21.237,0,0,1,356-410.211a20.557,20.557,0,0,0,2.233,3.168,1.952,1.952,0,0,0,1.892.808,1.951,1.951,0,0,0,1.85-.744c.7-.7.744-.829.638-1.722a11.576,11.576,0,0,0-2.53-4.976c-.957-1.191-1.127-1.7-.553-1.7.489,0,1.871-1.34,2.318-2.3a6.574,6.574,0,0,0,.043-5.039,5.406,5.406,0,0,0-3.721-3C356.6-426.116,348.624-426.116,347.646-425.691Zm8.739,4.593a1.383,1.383,0,0,1,.021,2.233c-.744.489-4.529.7-4.806.276a6.278,6.278,0,0,1-.042-2.807,8.941,8.941,0,0,1,2.19-.149C355.514-421.545,355.9-421.481,356.386-421.1Z" transform="translate(-85.042 -372.414)"/><path class="a" d="M605.646-425.52c-1.446.638-1.446.659-1.51,9.058-.064,8.272,0,8.846,1.085,9.654.574.425.851.447,6.889.447h6.273l.617-.7a2.225,2.225,0,0,0-.51-3.487c-.319-.191-1.871-.319-4.721-.383l-4.253-.106v-2.977l3.849-.106c3.934-.106,4.189-.17,4.912-1.063a2.565,2.565,0,0,0-.234-2.7l-.51-.6-4.019-.106-4-.106v-2.552l4.3-.106,4.317-.106.574-.6a2.156,2.156,0,0,0,0-3.062l-.574-.6-5.911-.042C607.539-425.8,606.178-425.754,605.646-425.52Z" transform="translate(-288.181 -372.606)"/><path class="a" d="M771.366-425.6a2.345,2.345,0,0,0-.383,3.657c.489.447.787.532,2.7.617l2.169.106.106,6.592c.085,4.7.191,6.719.362,7.06.957,1.637,3.487,1.85,4.465.34.34-.51.4-1.3.489-7.293l.106-6.7,2.148-.106a6.3,6.3,0,0,0,2.679-.468,2.3,2.3,0,0,0-.255-3.828c-.659-.34-1.488-.383-7.336-.383C772.535-426,771.982-425.957,771.366-425.6Z" transform="translate(-419.007 -372.424)"/><path class="a" d="M322.7-309.576a3.939,3.939,0,0,0-.957.766l-.532.574-.064,8.208c-.043,5.677.021,8.378.17,8.782a2.6,2.6,0,0,0,4.721.191c.34-.659.383-1.552.383-8.569,0-8.293-.043-8.718-1.021-9.59A3.5,3.5,0,0,0,322.7-309.576Z" transform="translate(-65.373 -463.991)"/><path class="a" d="M364.02-309.655a2.64,2.64,0,0,0-1.68,1.446c-.3.6-.34,1.85-.34,8.761,0,7.591.021,8.08.425,8.718a2.546,2.546,0,0,0,4.125,0c.4-.553.447-.957.553-4.869l.106-4.253,2.828,4.359a47.94,47.94,0,0,0,3.551,5.018,2.979,2.979,0,0,0,4.614-.617c.34-.659.383-1.552.383-8.676,0-8.91-.021-9.058-1.425-9.718a2.475,2.475,0,0,0-3.317,1.063,22.292,22.292,0,0,0-.362,4.742l-.106,4.317-3.1-4.742a53.152,53.152,0,0,0-3.636-5.125A3.8,3.8,0,0,0,364.02-309.655Z" transform="translate(-97.546 -463.954)"/><path class="a" d="M456.816-309.55a3.724,3.724,0,0,0-1.169.957c-.425.574-.447.914-.51,8.293-.043,4.232,0,8,.064,8.378a2.547,2.547,0,0,0,3.4,1.977c1.361-.447,1.467-.829,1.595-5.741l.106-4.359,3.1,4.7c2.849,4.317,3.19,4.742,4.1,5.167,1.935.936,3.806.085,4.189-1.935a150.353,150.353,0,0,0-.043-15.8,3.27,3.27,0,0,0-.723-1.382,2.709,2.709,0,0,0-2.828-.34c-1.191.617-1.318,1.127-1.318,5.762a26.829,26.829,0,0,1-.17,4.146c-.085,0-1.573-2.148-3.3-4.763-2.488-3.764-3.3-4.848-3.87-5.1A2.706,2.706,0,0,0,456.816-309.55Z" transform="translate(-170.864 -463.826)"/><path class="a" d="M548.623-309.445a2.9,2.9,0,0,0-1.4,1.446c-.914,1.807-5.869,14.693-5.975,15.459a2.575,2.575,0,0,0,4.317,2.02,8.5,8.5,0,0,0,1.084-2.105l.6-1.573h3.041c2.7,0,3.041.042,3.168.361.064.213.447,1.084.829,1.935.574,1.276.829,1.595,1.446,1.85a2.2,2.2,0,0,0,2.488-.17,2.312,2.312,0,0,0,1.084-2.807c-.319-1.51-5.72-14.736-6.358-15.608A3.268,3.268,0,0,0,548.623-309.445Z" transform="translate(-238.664 -463.824)"/><path class="a" d="M636.88-309.632a9.056,9.056,0,0,0-6.634,7.081,14.975,14.975,0,0,0,.085,5.677c1.042,4.019,3.424,6.294,7.293,6.953,4.04.68,7.867-1.063,9.335-4.253,1.063-2.275.617-4.083-1.127-4.7a1.78,1.78,0,0,0-1.637.042c-.68.3-.914.574-1.425,1.68-.914,2.02-1.871,2.722-3.679,2.722a3.42,3.42,0,0,1-3.1-2.02,5.6,5.6,0,0,1-.532-3.083c0-3.87,1.3-5.741,3.976-5.741,1.233,0,2.126.617,3.211,2.233,1.042,1.488,1.616,1.871,2.786,1.722a2.261,2.261,0,0,0,2.02-2.424C647.427-307.825,641.813-310.951,636.88-309.632Z" transform="translate(-308.571 -463.807)"/><path class="a" d="M725.488-309.614a3.7,3.7,0,0,0-1,1c-.489.723-.489.744-.489,8.569,0,8.633.042,8.995,1.255,9.611.532.276,1.574.34,6.23.34,4.976,0,5.635-.043,6.039-.383a2.337,2.337,0,0,0-.106-3.806c-.468-.319-1.148-.4-4.317-.447l-3.764-.085-.064-6.783-.064-6.783-.659-.659A2.9,2.9,0,0,0,725.488-309.614Z" transform="translate(-382.571 -463.89)"/><path class="a" d="M240.086-308.692a3.094,3.094,0,0,0-1.382.744l-.51.553-.064,8.165c-.064,9.122-.043,9.314,1.34,9.951a2.392,2.392,0,0,0,2.36.021c1.17-.489,1.574-1.595,1.574-4.487v-2.36l2.4-.128c2.871-.128,4.3-.574,5.55-1.659a6.34,6.34,0,0,0,1.744-6.358c-.914-3.594-3.168-4.7-9.59-4.657A26.627,26.627,0,0,0,240.086-308.692Zm7.038,4.721c.6.3.744.574.744,1.467,0,1.3-.766,1.744-3.083,1.765H243.51l-.064-1.574c-.085-2.254-.106-2.211,1.722-2.041A8.121,8.121,0,0,1,247.125-303.971Z" transform="translate(0 -464.62)"/><path class="a" d="M802.021-308.65a3.349,3.349,0,0,0-1.276.723l-.553.553-.064,8.016c-.064,8.548-.021,8.846.978,9.632.489.4.893.425,6.783.425h6.273l.617-.617a2.37,2.37,0,0,0,.106-3.147l-.51-.6-4.508-.064-4.487-.064.064-1.637.064-1.637,3.87-.106c3.721-.106,3.87-.128,4.4-.617a2.088,2.088,0,0,0-.51-3.466c-.617-.319-1.34-.383-4.3-.383H805.4v-2.552h3.828c4.125,0,4.954-.17,5.614-1.084a2.659,2.659,0,0,0,.34-1.3,2.146,2.146,0,0,0-1.807-2.084A91.967,91.967,0,0,0,802.021-308.65Z" transform="translate(-442.497 -464.683)"/></g></svg>