<svg xmlns="http://www.w3.org/2000/svg" width="179.536" height="179.535" viewBox="0 0 179.536 179.535"><defs><style>.a{opacity:0.9;}</style></defs><g class="a"><g transform="translate(129.262 160.963)"><path d="M375.3,460.783a3.507,3.507,0,0,0-4.792-1.273l-.135.078a3.506,3.506,0,1,0,3.519,6.065l.135-.078A3.507,3.507,0,0,0,375.3,460.783Z" transform="translate(-368.63 -459.036)"/></g><g transform="translate(0 0)"><path d="M167.506,44.913A89.745,89.745,0,0,0,3.1,66.557,89.762,89.762,0,0,0,121.888,173.606a3.506,3.506,0,0,0-2.516-6.545,82.2,82.2,0,0,1-79.1-10.872l3.142-16.4,1.514-.492a10.922,10.922,0,0,0,7-13.745l-1.111-3.419a3.872,3.872,0,0,1,0-2.418,10.909,10.909,0,0,0-8.273-14.106l-7.914-1.546-15.27-11.61a3.507,3.507,0,0,0-3.206-.544l-8.94,2.9a82.665,82.665,0,0,1-.012-9.574c.353.329.582.552.724.7A3.676,3.676,0,0,0,11.355,87.7a50.931,50.931,0,0,0,6.284-.715c2.958-.437,5.9-.93,5.93-.935a3.506,3.506,0,0,0,2.317-5.433l-4.3-6.306,6.158-4.4a3.509,3.509,0,0,0,1-1.109l9.546-16.665,3.848-4.123A14.811,14.811,0,0,0,45,32.3a16.127,16.127,0,0,0-6.388-7.523,82.628,82.628,0,0,1,50.213-17.7l-6.261,7.854-23.219,8.14a3.5,3.5,0,0,0-2.081,1.971L50.78,40.763a3.507,3.507,0,0,0,.387,3.374L60.638,57.4a33.325,33.325,0,0,0-4.253,5.278c-.691.981-1.344,1.908-1.8,2.428-.392.452-.785.894-1.174,1.332a32.813,32.813,0,0,0-5.639,7.827,20.9,20.9,0,0,0,1.734,21.123,19.68,19.68,0,0,0,18.582,7.974,27.3,27.3,0,0,0,3.425-.69c3.006-.744,3.959-.818,4.923.085.469.439.512.522.5,2.012a13.631,13.631,0,0,0,.313,3.475,11.079,11.079,0,0,0,2.964,4.84,7.858,7.858,0,0,1,1.271,1.622c1.094,2.621.618,4.072-.426,7.253q-.134.408-.272.835c-1.585,4.907.625,9.775,2.574,14.069.633,1.395,1.231,2.711,1.623,3.874,3.153,9.355,5.516,11.5,7.413,12.36a7.308,7.308,0,0,0,3.06.649c5.055,0,10.329-4.694,12.752-7.669a10.776,10.776,0,0,0,2.17-5.106,5.59,5.59,0,0,1,.448-1.567,9.186,9.186,0,0,1,1.15-1.479,12.164,12.164,0,0,0,2.868-4.763,7.716,7.716,0,0,1,2.38-3.734c.241-.256.5-.531.774-.831,4.67-5.082,3.468-8.964,2.194-13.075-1.072-3.459.8-5.67,5.336-9.892a37.874,37.874,0,0,0,5.567-6c.687-1,2.778-4.022,1.484-7.023-1.268-2.942-4.492-3.436-7.082-3.833a11.618,11.618,0,0,1-3.061-.716c-2.17-1.418-3.5-4.379-4.781-7.242-.256-.57-.508-1.132-.763-1.678-.456-.974-.911-2.153-1.394-3.4-1.276-3.3-2.721-7.044-5.183-9.653-2.212-2.344-6.383-3.473-10.062-4.47-1.237-.335-2.405-.651-3.176-.936a3.5,3.5,0,0,0-2.015-.124,9.1,9.1,0,0,0-3.738,1.547,4.356,4.356,0,0,0-1.248,1.68,40.1,40.1,0,0,1-4.135-2.517l-.068-.045a4.971,4.971,0,0,0-.312-3.375c-1.959-4.143-8.461-3.819-9.744-3.71-.729.061-1.651.094-2.626.128-1.532.054-3.225.115-4.9.3l.086-.241a8.966,8.966,0,0,1,8.419-5.923H78.8a3.506,3.506,0,1,0,0-7.012H76.805a16.005,16.005,0,0,0-13.573,7.57L58,41.642,63.148,29.17l22.688-7.954a3.508,3.508,0,0,0,1.582-1.123L97.5,7.441a82.691,82.691,0,0,1,63.93,40.977,81.828,81.828,0,0,1,8.262,20.07l-1.486,1.325a9.365,9.365,0,0,0-3.12,6.813c0,.028,0,.056,0,.085l-2.422-6.66a8.754,8.754,0,0,0-1.579-2.708l-4.32-5.058a8.787,8.787,0,0,0-6.691-3.084h-5.288a5.078,5.078,0,0,0-4.225,7.9l.535.8a38.861,38.861,0,0,1-11.577,6.875l-7.248-13.884v-3.1a3.5,3.5,0,0,0-1.085-2.536l-6.527-6.231a3.511,3.511,0,0,0-1.259-.772l-5.875-2.065a3.506,3.506,0,1,0-2.325,6.616l5.163,1.815,4.9,4.673v2.457a3.507,3.507,0,0,0,.4,1.623l9.074,17.381a3.5,3.5,0,0,0,4.321,1.667l2.642-.974a45.889,45.889,0,0,0,16.454-10.531,3.506,3.506,0,0,0,.438-4.424l-.187-.28h1.674a1.785,1.785,0,0,1,1.359.627l4.32,5.058a1.781,1.781,0,0,1,.321.55l4.767,13.109a3.506,3.506,0,0,0,5.774,1.281l2.269-2.269a10.947,10.947,0,0,0,2.9-5.272,83.032,83.032,0,0,1-30.828,75.513,3.506,3.506,0,0,0,4.33,5.516,89.762,89.762,0,0,0,22.22-115.412ZM16.58,99.148l14.459,10.993a3.5,3.5,0,0,0,1.45.65l8.714,1.7a3.9,3.9,0,0,1,2.955,5.038,10.839,10.839,0,0,0-.009,6.77l1.111,3.418a3.9,3.9,0,0,1-2.5,4.909l-3.484,1.132a3.505,3.505,0,0,0-2.36,2.675l-2.8,14.64a83.659,83.659,0,0,1-15.973-19.924,82.3,82.3,0,0,1-10.187-29.2ZM37.015,43.222,32.89,47.641a3.521,3.521,0,0,0-.479.65L23.044,64.644,14.719,70.6a3.506,3.506,0,0,0-.858,4.827l3.113,4.567c-1.795.267-3.405.487-4.476.6-.206-.2-.421-.4-.644-.6-.834-.774-1.992-1.808-3.718-3.319a82.878,82.878,0,0,1,24.7-46.9,9.118,9.118,0,0,1,5.682,5.2A7.781,7.781,0,0,1,37.015,43.222ZM65.6,62.383c1.564-.88,5.194-1.009,7.844-1.1,1.062-.038,2.066-.073,2.962-.148a9.536,9.536,0,0,1,1.494.006A3.506,3.506,0,0,0,79.517,65.5c.658.352,1.573.963,2.543,1.609,2.74,1.827,5.847,3.9,8.765,4.083a5.818,5.818,0,0,0,4.763-1.984c.05-.051.1-.1.149-.149a3.757,3.757,0,0,0,.938-1.149c.561.16,1.15.32,1.754.484,2.076.562,5.941,1.608,6.795,2.513,1.517,1.608,2.7,4.668,3.742,7.368.527,1.364,1.025,2.652,1.584,3.846.24.512.476,1.04.716,1.574,1.618,3.609,3.452,7.7,7.342,10.243a14.494,14.494,0,0,0,5.835,1.777c.231.035.5.076.764.12a33.907,33.907,0,0,1-4.449,4.668c-4.341,4.042-9.743,9.074-7.255,17.1,1.174,3.79,1.229,4.2-.659,6.254-.257.28-.5.535-.722.775a14.408,14.408,0,0,0-3.952,6.413,5.473,5.473,0,0,1-1.428,2.229,15.655,15.655,0,0,0-1.962,2.6,11.363,11.363,0,0,0-1.269,3.725,4.293,4.293,0,0,1-.733,2.056,20.44,20.44,0,0,1-4.427,3.914,5.785,5.785,0,0,1-2.938,1.17c-.374-.4-1.729-2.158-3.777-8.235-.5-1.5-1.206-3.042-1.883-4.534-1.493-3.289-3.037-6.691-2.286-9.015q.133-.411.263-.8c1.2-3.657,2.333-7.111.234-12.139a12.645,12.645,0,0,0-2.553-3.638,6.518,6.518,0,0,1-1.339-1.779,7.58,7.58,0,0,1-.115-1.774,8.7,8.7,0,0,0-2.722-7.178c-3.88-3.632-8.405-2.513-11.4-1.773a22,22,0,0,1-2.559.533A12.6,12.6,0,0,1,55.2,91.3a13.882,13.882,0,0,1-1.088-14.035,26.623,26.623,0,0,1,4.54-6.164c.407-.458.818-.92,1.229-1.394.684-.788,1.436-1.856,2.232-2.986C63.067,65.371,64.836,62.86,65.6,62.383Z" transform="translate(0 -0.001)"/></g><g transform="translate(122.782 111.758)"><path d="M371.144,327.677l-1.687-6.359a3.506,3.506,0,0,0-6.471-.772c-.384.708-.73,1.459-1.065,2.184a15.068,15.068,0,0,1-1.75,3.18,7.741,7.741,0,0,1-2.058,1.221c-2.019.974-4.784,2.308-5.84,5.675a10.273,10.273,0,0,0-.232,4.947,3.191,3.191,0,0,1-.09,2.066l-.035.082c-1.116,2.619-3.193,7.495-.281,11.64,2.078,2.958,4.262,3.719,5.96,3.719a5.69,5.69,0,0,0,.935-.075c3.577-.585,6.266-4.3,8.463-11.709l4.124-13.9A3.505,3.505,0,0,0,371.144,327.677Zm-10.875,13.8a21.272,21.272,0,0,1-2.683,6.319c-.066-.084-.138-.18-.214-.289-.67-.954.331-3.305.994-4.861l.035-.082a9.867,9.867,0,0,0,.575-5.842,3.677,3.677,0,0,1-.014-1.82c.137-.437.959-.862,2.2-1.459.549-.265,1.153-.557,1.763-.909Z" transform="translate(-350.15 -318.712)"/></g><g transform="translate(89.783 41.398)"><path d="M260.948,118.34l-.237-.083a3.506,3.506,0,1,0-2.321,6.617l.236.083a3.506,3.506,0,1,0,2.321-6.617Z" transform="translate(-256.044 -118.059)"/></g></g></svg>