<svg xmlns="http://www.w3.org/2000/svg" xmlns:xlink="http://www.w3.org/1999/xlink" width="931.448" height="623.277" viewBox="0 0 931.448 623.277"><defs><style>.a,.d{fill:#b8b7bf;}.a,.b,.n{opacity:0.1;}.c{fill:#3a3768;}.e{opacity:0.2;}.f{fill:#fff;opacity:0.3;}.g{fill:url(#a);}.h{fill:#4c4c56;}.i{fill:#d1d9ec;}.j{fill:#dfe6f5;}.k{fill:#fdc2cc;}.l{fill:#5f5d7e;}.m{fill:#865a61;}</style><linearGradient id="a" x1="0.5" y1="1" x2="0.5" gradientUnits="objectBoundingBox"><stop offset="0" stop-color="gray" stop-opacity="0.251"/><stop offset="0.54" stop-color="gray" stop-opacity="0.122"/><stop offset="1" stop-color="gray" stop-opacity="0.102"/></linearGradient></defs><g transform="translate(43 96.277)"><path class="a" d="M1018.616,701.37c-10.149,8.414-22.4,14.411-35.631,18.849q-2.888.987-5.858,1.845c-5.111,1.522-10.342,2.842-15.62,3.995-2.6.581-5.222,1.116-7.842,1.615-4.456.858-8.931,1.624-13.378,2.325-16.505,2.592-33.121,4.512-49.82,5.969q-7.722.683-15.454,1.227l-2.057.148-3.69.249-2.27.148c-3.451.231-6.9.434-10.342.627-13.793.775-27.6,1.338-41.415,1.845-10.149.351-20.2.646-30.289.923l-20.528.6-5.3.157-2.325.065q-9.115.277-18.249.526l-1.716.046-5.351.157-10.148.277-3.026.083-2.768.074c-64.425,1.734-128.9,3-193.285,2.454q-7.731-.055-15.454-.166c-47.809-.618-95.563-2.288-143.233-5.536-16.754-1.144-33.619-2.528-50.392-4.438q-7.75-.877-15.454-1.91c-41.2-5.536-81.392-14.872-117.391-32.291-27.115-13.147-52.145-31.848-62.644-56.731-10.6-25.113-4.991-53.317,7.113-77.932s30.317-46.674,46.019-69.8c5.4-7.962,10.5-16.256,15.121-24.781.277-.517.563-1.043.83-1.559q3.552-6.67,6.7-13.507h0q2.989-6.514,5.536-13.156.766-1.984,1.467-3.958c.055-.148.111-.3.157-.443s.12-.332.175-.5a170.8,170.8,0,0,0,6.956-25.713l.221-1.218c.1-.581.2-1.153.3-1.734s.175-1.079.258-1.624h0a127.322,127.322,0,0,0,1.43-24.772v-.923a105.118,105.118,0,0,0-1.384-12.667h0c-.055-.36-.111-.71-.185-1.061a99.2,99.2,0,0,0-4.862-17.622c-.092-.249-.194-.507-.3-.766a1.036,1.036,0,0,0-.129-.341c-.692-1.762-1.43-3.506-2.242-5.25h0c-.129-.3-.277-.6-.415-.923h0c-.268-.563-.535-1.126-.821-1.679h0q-1.947-3.976-4.336-7.851c-1.845-3.072-3.94-6.08-6.089-9.032l-.3-.415-.249-.351c-2.823-3.847-5.775-7.63-8.654-11.449-2.26-2.98-4.475-5.978-6.55-9.032l-.369-.554a92.019,92.019,0,0,1-6.717-11.56c-.387-.821-.766-1.642-1.116-2.473-.627-1.458-1.209-2.925-1.725-4.4-7.086-20.02-4.936-41.886-1.532-62.737,5.047-30.981,14.439-64.37,43.51-83.707,25.381-16.893,59.729-18.867,92.26-14.762,5.213.646,10.37,1.448,15.454,2.371l2.768.526c41.148,7.888,80.063,21.856,118.5,36.812,8.977,3.5,17.935,7.049,26.885,10.582q10.49,4.142,20.989,8.239Q494.479,187.5,506.8,192q7.694,2.823,15.453,5.536,12.446,4.327,25.058,8.22,8.931,2.768,17.954,5.213c28.6,7.787,57.939,13.184,87.97,14.227a268.736,268.736,0,0,0,68.1-6.311c5.213-1.181,10.379-2.537,15.453-4.069a201.128,201.128,0,0,0,20.851-7.556c17.17-7.381,32.6-17.123,44.82-29.523l.1-.1c18.092-18.35,44.617-27.678,72.406-29.237a151.42,151.42,0,0,1,15.453-.083,153.391,153.391,0,0,1,55.983,13.1c43.953,19.928,72.378,62.119,70.238,104.254-3.109,61.334-62.239,108.415-97.519,162.073-2.491,3.783-4.862,7.685-7.067,11.671-.812,1.458-1.587,2.925-2.343,4.4-8.691,16.976-13.913,35.308-11.071,52.92a56.509,56.509,0,0,0,2.251,9.143c.434,1.3.923,2.6,1.467,3.893,4.05,9.65,10.453,17.834,18.351,25.113a125.445,125.445,0,0,0,11.283,9.171c32.918,23.932,80.6,39.026,101.661,71.723C1051.267,642.9,1044.754,679.661,1018.616,701.37Z" transform="translate(-155.078 -218.699)"/><path class="a" d="M763.214,503.241V386.566h15.833c.621-1.211,1.257-2.415,1.923-3.612H763.214V260.291H825.3c-.136-1.2-.288-2.423-.439-3.612h-61.65V144.047a124.285,124.285,0,0,0-12.683.068v112.54h-113.4V198.648c-4.164,1.257-8.4,2.37-12.683,3.339v54.669H462.566l-.386-.689,34.179-60.476q-7.405-2.006-14.735-4.278L461.059,227.6v-43.16q-6.368-2.211-12.683-4.543v51.7l-37.291-65.981c-7.345-2.9-14.7-5.815-22.064-8.685L445.052,256l-.394.689H289.466V126.246c-4.172-.757-8.4-1.416-12.683-1.946V256.656h-110.2c.424,1.212.9,2.415,1.416,3.612H276.783V382.932h-79.7c-.038.121-.083.242-.129.363q-.575,1.62-1.2,3.248h81.019v116.7H162.69q.53,1.8,1.1,3.612H276.783V626.246q6.36,1.681,12.683,3.513V506.853H448.384V634.181q6.338.091,12.683.136V506.853H624.444V632.144l8.329-.227,4.392-.129V506.853H750.5V627.442q6.345-.454,12.683-1.007V506.853h49.6c-.136-1.2-.265-2.408-.394-3.612Zm-314.838,0H289.466V386.566H448.384Zm0-120.286H289.466V260.291H446.112l2.272,3.279ZM624.444,503.241H461.059V386.566H624.444Zm0-120.286H461.059V260.291H624.444ZM750.5,503.241H637.127V386.566H750.5Zm0-120.286H637.127V260.291H750.5Z" transform="translate(-98.791 -107.407)"/><path class="a" d="M857.831,194.377a4.377,4.377,0,0,1-4.195,4.543h-8.465a4.483,4.483,0,0,1,3.211,4.392,4.377,4.377,0,0,1-4.195,4.543H814.778a4.006,4.006,0,0,1-2.908-1.272c14.091-6.057,26.759-14.053,36.784-24.23l.083-.083h.924a4.036,4.036,0,0,1,2.961,1.325,4.74,4.74,0,0,1,0,6.345h.992A4.377,4.377,0,0,1,857.831,194.377Z" transform="translate(-256.422 -121.483)"/><path class="a" d="M432.379,246.633H431.4a4.687,4.687,0,0,0,1.2-3.15h0a4.377,4.377,0,0,0-4.195-4.543H398.995a4.377,4.377,0,0,0-4.195,4.543h0a4.377,4.377,0,0,0,4.195,4.543h.984a4.687,4.687,0,0,0-1.2,3.15,4.49,4.49,0,0,0,3.21,4.392H393.52a4.543,4.543,0,0,0,0,9.033h29.409a4.377,4.377,0,0,0,4.195-4.543,4.475,4.475,0,0,0-3.18-4.414h8.465a4.543,4.543,0,0,0,0-9.041Z" transform="translate(-153.856 -135.243)"/><path class="a" d="M912.828,489.783h-.984a4.649,4.649,0,0,0,1.2-3.15h0a4.377,4.377,0,0,0-4.195-4.543H879.436a4.384,4.384,0,0,0-4.195,4.543h0a4.384,4.384,0,0,0,4.195,4.543h.984a4.679,4.679,0,0,0-1.2,3.15,4.467,4.467,0,0,0,3.211,4.384h-8.465a4.543,4.543,0,0,0,0,9.041h29.409a4.384,4.384,0,0,0,4.195-4.543,4.475,4.475,0,0,0-3.21-4.384h8.465a4.543,4.543,0,0,0,0-9.041Z" transform="translate(-270.507 -194.284)"/><ellipse class="b" cx="60.499" cy="80.194" rx="60.499" ry="80.194" transform="matrix(0.99, -0.143, 0.143, 0.99, 40.179, 161.779)"/><ellipse class="c" cx="60.499" cy="80.194" rx="60.499" ry="80.194" transform="matrix(0.99, -0.143, 0.143, 0.99, 41.745, 161.132)"/><path class="d" d="M267.71,395.051a86.358,86.358,0,0,1-4.134,21.83A64.764,64.764,0,0,1,251.1,439.316c-6.815,7.791-15.477,12.948-25.305,14.387a38.212,38.212,0,0,1-4.9.379c-26.577.363-51.4-27.259-56.751-64.414-5.656-39.419,12.706-74.742,41.07-78.793a40.374,40.374,0,0,1,24.556,4.475c11.153,5.755,21.019,16.34,27.925,30.015h0a95.982,95.982,0,0,1,9.169,29.53A97.98,97.98,0,0,1,267.71,395.051Z" transform="translate(-98.895 -152.616)"/><path class="d" d="M247,409.22,243.34,442.6s11.721-1.1,15.144-6.959L247.679,408.66Z" transform="translate(-118.374 -176.454)"/><path class="e" d="M247,409.22,243.34,442.6s11.721-1.1,15.144-6.959L247.679,408.66Z" transform="translate(-118.374 -176.454)"/><path class="e" d="M180.066,407.532,198.5,406.29s1.916,14.008,7.738,21.89L193.15,442.415S179.574,420.783,180.066,407.532Z" transform="translate(-103.007 -175.879)"/><rect class="f" width="63.77" height="0.757" transform="translate(80.258 276.556) rotate(-47)"/><path class="f" d="M85.471,306l-.061-.757,60.484-4.407.061.75Z" transform="translate(-20.739 -73.048)"/><path class="e" d="M278.71,346.882h0l-5.232,6.345c-12.94-24.768-23.738-26.161-23.738-26.161l1.045-10.207C261.953,322.622,271.82,333.208,278.71,346.882Z" transform="translate(-119.928 -154.164)"/><path class="e" d="M210.625,366.9l23.882,24.987-1.673.7L205.06,381.673S207.286,372.791,210.625,366.9Z" transform="translate(-109.079 -166.314)"/><rect class="f" width="0.757" height="61.907" transform="translate(66.134 203.635) rotate(-68.55)"/><path class="e" d="M250.79,401.756,270.265,399s1.37,8.056.644,10.411a1.768,1.768,0,0,1-.083.212Z" transform="translate(-120.183 -174.108)"/><path class="e" d="M192.14,341.569s8.14-11.759,18.278-14.879l8.965,21.436s-8.738,3.233-11.8,9.684Z" transform="translate(-105.942 -156.55)"/><path class="f" d="M237.531,376.768l-.651-.083c-.144,0-.3-.045-.409-.5L209.78,313.035l.7-.3L236.3,373.86c0-3.4.409-10.972,1.825-27.849,1.249-14.9,2.7-29.969,2.718-30.121l.757.076c-2.166,22.42-5.058,56.032-4.483,59.818Z" transform="translate(-110.225 -153.163)"/><rect class="f" width="0.757" height="66.988" transform="translate(77.578 176.82) rotate(-44.18)"/><path class="e" d="M269.87,373.708l8.155-9.238s7.746,19.1,6.875,24.783l-9.684,1.363S271.733,374.223,269.87,373.708Z" transform="translate(-124.816 -165.724)"/><rect class="f" width="43.137" height="0.757" transform="translate(129.857 224.741) rotate(-48.39)"/><path class="f" d="M259.409,388.1l-.045-.4a.783.783,0,0,0-.053-.348c-.053-.114,0-.31-.061-.469a50.073,50.073,0,0,0-5.013-15.863c-.083-.159-.167-.318-.257-.477a1.659,1.659,0,0,0-.121-.227c-4.074-7.572-9.919-13.228-16.438-15.9-.242-.106-.485-.2-.757-.288a21.383,21.383,0,0,0-10.6-1.2,20.177,20.177,0,0,0-3.907.962,1.837,1.837,0,0,0-.288.1l-.432.159a24.813,24.813,0,0,0-11.191,9.177l-.083.121-.22.326h0a1.667,1.667,0,0,0-.129.189c-.318.477-.628.962-.924,1.469s-.56.969-.825,1.514a40.252,40.252,0,0,0-3.71,10.4c-.061.25-.114.507-.159.757a49.687,49.687,0,0,0-.591,14.78l.045.447a.833.833,0,0,0,.038.3c.053.416.106.833.167,1.249a48.771,48.771,0,0,0,7.648,20.308c.045.076.1.144.151.22s.189.28.3.416c.257.379.522.757.8,1.106,5.3,7.049,12.4,11.539,19.831,12.07.326,0,.659.038.992.045h.757a19.828,19.828,0,0,0,2.665-.2,22.019,22.019,0,0,0,12.032-6.058c.2-.182.394-.371.583-.568a32.876,32.876,0,0,0,7.08-11.161c.106-.257.2-.515.3-.757a45.008,45.008,0,0,0,2.529-11.267l.068-.8a51.272,51.272,0,0,0-.182-10.131Zm-2.961,21.618c-.091.265-.189.53-.288.757a32.391,32.391,0,0,1-6.815,10.987c-.189.2-.379.394-.575.576a21.315,21.315,0,0,1-11.827,6.012,18.4,18.4,0,0,1-2.491.2H233.7c-7.776-.159-15.227-4.846-20.7-12.357l-.469-.659c-.151-.212-.3-.424-.432-.644a47.923,47.923,0,0,1-7.428-19.853c-.061-.4-.114-.8-.159-1.2,0-.257-.061-.507-.083-.757a48.937,48.937,0,0,1,.553-14.44c.045-.257.091-.507.151-.757A39.425,39.425,0,0,1,208.8,367.25l.5-.916c.356-.628.757-1.242,1.113-1.825.114-.174.227-.348.348-.515a1.244,1.244,0,0,1,.083-.129,24.162,24.162,0,0,1,10.949-9.033l.712-.265h0a20.1,20.1,0,0,1,7.988-1.053,21.725,21.725,0,0,1,6.141,1.378l.757.3c6.345,2.665,12.017,8.268,15.969,15.712.129.235.25.477.371.719A49.6,49.6,0,0,1,258.5,387l.068.462h0v.28c0,.091.038.31.053.469a49.979,49.979,0,0,1,.235,9.715v.242l-.045.553h0a43.847,43.847,0,0,1-2.362,10.994Z" transform="translate(-108.654 -162.87)"/><path class="e" d="M297.431,421.208a86.36,86.36,0,0,1-4.134,21.83l-7.776-7.867c2.12-3.2,3.423-16.961,3.423-16.961l.447.31C289.783,419.361,294.084,420.459,297.431,421.208Z" transform="translate(-128.616 -178.773)"/><rect class="f" width="0.757" height="47.521" transform="matrix(0.705, -0.709, 0.709, 0.705, 130.751, 230.929)"/><path class="f" d="M210.254,314.476l-38.844-15.7,38.117-5.732.114.75-35.376,5.315,36.269,14.667Z" transform="translate(-41.621 -71.154)"/><path class="e" d="M269.624,476.608c-6.815,7.791-15.477,12.948-25.305,14.387a38.2,38.2,0,0,1-4.9.379l1.59-15.9s14.561.22,23-11.532Z" transform="translate(-117.422 -189.877)"/><rect class="f" width="0.757" height="58.311" transform="matrix(0.922, -0.386, 0.386, 0.922, 129.24, 233.202)"/><rect class="f" width="68.222" height="0.757" transform="translate(121.894 301.437) rotate(-85.04)"/><path class="f" d="M263.216,379.669a5.284,5.284,0,0,0-.091-.757c-.068-.621-.151-1.242-.242-1.863a80.343,80.343,0,0,0-6.474-22.163v-.068l-.318-.674c-5.55-11.7-13.667-20.83-22.9-25.843-.182-.106-.371-.2-.56-.3l-.159-.083a32.438,32.438,0,0,0-19.687-3.6,30.291,30.291,0,0,0-5.535,1.34l-.712.257h0a35.86,35.86,0,0,0-15.424,11.623q-1.136,1.431-2.173,2.983c-.144.212-.288.424-.424.644a60.893,60.893,0,0,0-8.473,21.958c-.053.25-.1.5-.136.757a79.413,79.413,0,0,0-.538,23.336,5.323,5.323,0,0,0,.1.757c.038.257.091.719.144,1.083.083.583.174,1.174.273,1.749v.053c.371,2.272.833,4.475,1.378,6.641a.22.22,0,0,0,0,.068,73.448,73.448,0,0,0,11.161,24.752c.144.212.288.416.447.628a58.634,58.634,0,0,0,4.846,5.838c1.015,1.075,2.06,2.082,3.12,3.029,6.868,6.156,14.538,9.654,22.314,10.207.909.061,1.825.083,2.733.061h.318a4.294,4.294,0,0,0,.447,0,29.179,29.179,0,0,0,3.029-.273,32.839,32.839,0,0,0,19.687-10.866c.068-.068.129-.144.189-.212l.371-.409a48.459,48.459,0,0,0,6.716-10.01,58.428,58.428,0,0,0,3.089-7.216,4.2,4.2,0,0,0,.136-.4,4.175,4.175,0,0,0,.136-.4,69.348,69.348,0,0,0,3.362-16.242,1.14,1.14,0,0,1,.038-.356c.038-.121,0-.288.038-.432q.235-3.089.242-6.247A82.88,82.88,0,0,0,263.216,379.669Zm-.522,16.067a68.491,68.491,0,0,1-3.226,15.946q-.129.394-.273.757a57.973,57.973,0,0,1-3.165,7.466,47.641,47.641,0,0,1-6.375,9.571c-.174.212-.363.424-.553.628-5.452,6.057-12.115,9.843-19.505,10.9q-1.431.2-2.862.273h-.757c-8.624.182-17.241-3.385-24.843-10.29-.962-.871-1.908-1.8-2.839-2.779a59.569,59.569,0,0,1-4.876-5.876l-.22-.318-.227-.318a75.627,75.627,0,0,1-12.607-32.809c-.053-.341-.1-.681-.144-1.022a1.03,1.03,0,0,0-.053-.394c-.053-.136,0-.235-.038-.356a78.747,78.747,0,0,1,.492-23l.136-.757a60.114,60.114,0,0,1,8.329-21.686q.114-.189.25-.386c.053-.091.114-.182.174-.265.666-1.007,1.371-1.976,2.1-2.9a35.194,35.194,0,0,1,15.265-11.555l.507-.182.212-.076a29.44,29.44,0,0,1,5.346-1.287,29.947,29.947,0,0,1,6.315-.227,33.2,33.2,0,0,1,13.16,3.884l.151.076.568.31a48.255,48.255,0,0,1,13.629,11.562,65.875,65.875,0,0,1,8.829,14.084c.038.068.068.144.1.212l.25.53h0a79.99,79.99,0,0,1,6.27,21.656c.091.621.174,1.234.25,1.855a1.291,1.291,0,0,0,.053.447c.053.151,0,.2,0,.31a80.2,80.2,0,0,1,.3,15.144Q262.739,395.335,262.694,395.736Z" transform="translate(-102.693 -155.905)"/><ellipse class="d" cx="3.809" cy="5.24" rx="3.809" ry="5.24" transform="matrix(0.99, -0.143, 0.143, 0.99, 122.945, 223.679)"/><ellipse class="e" cx="3.809" cy="5.24" rx="3.809" ry="5.24" transform="matrix(0.99, -0.143, 0.143, 0.99, 122.945, 223.679)"/><circle class="a" cx="10.252" cy="10.252" r="10.252" transform="translate(497.403 24.472)"/><circle class="a" cx="10.252" cy="10.252" r="10.252" transform="translate(25.631 134.219)"/><circle class="a" cx="10.252" cy="10.252" r="10.252" transform="translate(746.32 207.037)"/><circle class="a" cx="10.252" cy="10.252" r="10.252" transform="translate(704.841 268.907)"/><circle class="a" cx="4.725" cy="4.725" r="4.725" transform="translate(533.104 14.508)"/><circle class="a" cx="4.725" cy="4.725" r="4.725" transform="translate(0 115.94)"/><circle class="a" cx="4.725" cy="4.725" r="4.725" transform="translate(746.32 332.775)"/><circle class="a" cx="3.339" cy="3.339" r="3.339" transform="translate(560.219 0)"/><circle class="a" cx="3.339" cy="3.339" r="3.339" transform="translate(22.292 188.251)"/><path class="g" d="M920.556,623.607s-5.664-24.359-9.435-53.972-33.006-78.823-33.006-78.823c-.129-.25-.265-.507-.4-.757a134.414,134.414,0,0,0-16.264-24.116c-12.872-15.2-24.548-22.026-25.131-22.36h0c-.924-1.408-1.916-2.961-2.961-4.619-3.922-6.2-8.586-14-13.039-22.42a3.149,3.149,0,0,0-.106-.583h0c-1.984-11.994-2.06-24.609,3.907-34.967,2.945-5.111,7.193-9.321,10.434-14.243,5.3-8.026,7.708-17.6,9.654-27.054,1.37-6.61,2.552-13.349,2.2-20.081v-.3h0c0-.469-.061-.939-.106-1.408-1.113-12.206-7.511-23.17-13.75-33.672-3.286-5.527-6.739-11.229-12.032-14.8-11.009-7.428-24.5-2.779-36.269-7.034-12.5-4.543-23.927-8.776-37.534-10.169-4.823-.492-10.124-.613-14.031,2.272-4.1,3.029-5.467,8.556-8.193,12.925-5.2,8.329-15.015,12.115-23.3,17.355-6.292,3.945-12.327,10.252-13.629,17.2v-.061a15.315,15.315,0,0,0-.242,2.272c0,.045,0,.1,0,.144v.227a13.758,13.758,0,0,0,.56,4.142c.469.242.946.454,1.431.666-.3.492-.606.984-.893,1.514L687.79,312A73.72,73.72,0,0,0,724.6,416.07h0c.447,1.09.909,2.219,1.363,3.385a171.457,171.457,0,0,1,12.115,61.771h0v2.9h0c-6.815,8.632-13.879,19.339-13.629,26.744.409,12.4-16.128,41.259-20.588,48.8l-.893,1.514h0c-4.452-3.226-9.745-6.126-12.312-4.089l-2.15-1.378c-10.873-6.981-30.287-19.914-37.609-27.645-10.373-10.987-30.651-21.02-30.651-21.02s-16.03-19.111-15.083-26.274c.469-3.566-5.967-32.036-13.94-52.927,5.823.613,11.8,1.348,13.629,1.575l.447.394.628.1c22.042,19.369,26.865,10.737,26.865,10.737,1.8-1.219,2.415-4.891,2.59-6.3v-.333h.114v-.28a2.043,2.043,0,0,0,.121-.257l.053-.1.038-.076a.613.613,0,0,1,.083-.2,3.5,3.5,0,0,0,.3-.757h-.061a28.357,28.357,0,0,0,.462-4.8,5.452,5.452,0,0,0-4.271-5.346.163.163,0,0,0-.038-.121c-2.862-8.511-23.677,4.112-25.979,5.543l-.56.061c-4.172-.833-10.6-2.355-16.045-3.672-7.383-17.96-15.757-28.016-21.126-5.914l-4.937-.848a4.543,4.543,0,0,0-3.528.833,5.992,5.992,0,0,0-1.689,1.923l-21.421-3.392-5.05.174,4.278,2.067.318.151,21.421,3.491a4.642,4.642,0,0,0,3.975,4.005l4.808.7c-8.586,50.118,10.6,66.473,10.6,66.473s23.1,22.655,23.1,28.016c0,4.543,45.1,58.508,58.8,74.795,2.453,2.923,3.907,4.634,3.907,4.634,5.384,6.186,31.272,27.319,43.319,37.057h0c1.181,9.844,2.272,19.687,2.9,25.086l2.272-.061,10.775-.3,5.8-.174q7.5-.2,14.977-.432l1.908-.053,4.354-.136q8.427-.242,16.847-.5,12.425-.375,24.858-.757c11.358-.4,22.67-.863,33.99-1.514,2.824-.159,5.656-.326,8.488-.515l1.863-.129,3.029-.2c18.521-1.31,36.966-3.2,55.274-6.1,3.65-.583,7.322-1.219,10.979-1.938,2.15-.409,4.3-.856,6.436-1.34,4.331-.962,8.624-2.06,12.819-3.324C922.154,633,920.556,623.607,920.556,623.607Z" transform="translate(-188.426 -138.403)"/><path class="d" d="M623.179,488.025l-2.817-.1s-19.1-2.37-25.222-2.514a4.222,4.222,0,0,0-1.84.144l1.355-5.467,1.658.409c5.823,1.439,25.123,6.163,28.228,6.269C628.214,486.89,623.179,488.025,623.179,488.025Z" transform="translate(-203.35 -193.798)"/><path class="d" d="M629.83,485.449s23.17-14.492,26.2-5.6-4.869,10.207-4.869,10.207Z" transform="translate(-212.22 -193.039)"/><path class="e" d="M629.83,485.449s23.17-14.492,26.2-5.6-4.869,10.207-4.869,10.207Z" transform="translate(-212.22 -193.039)"/><path class="d" d="M656.372,499.013S651.488,507.66,629,487.989l.31-.4.931-1.2s29.106-13.379,29.863-.31a25.213,25.213,0,0,1-.545,5.058,2.618,2.618,0,0,1-.462,1l-.106.1a3.592,3.592,0,0,1-.06.553C658.788,494.175,658.174,497.794,656.372,499.013Z" transform="translate(-212.018 -193.86)"/><path class="b" d="M656.372,501.164s-4.884,8.647-27.372-11.025l.31-.4.522-.538,29.265,5.081-.106.1a3.592,3.592,0,0,1-.06.553C658.788,496.325,658.174,499.944,656.372,501.164Z" transform="translate(-212.018 -196.01)"/><path class="b" d="M658.684,494.3l-29.939-4.816L627.23,488.2l2.741-.318,29.311,4.747a2.174,2.174,0,0,1-.56,1.1A3.9,3.9,0,0,1,658.684,494.3Z" transform="translate(-211.588 -195.69)"/><path class="b" d="M658.294,495.128l-29.939-4.793-1.514-1.28,2.733-.326,29.341,4.748a2.112,2.112,0,0,1-.568,1.1S658.339,494.788,658.294,495.128Z" transform="translate(-211.494 -195.896)"/><path class="h" d="M658.476,494.718l-29.962-4.793L627,488.646l2.733-.326,29.318,4.748a2.271,2.271,0,0,1-.568,1.1A1.956,1.956,0,0,1,658.476,494.718Z" transform="translate(-211.533 -195.797)"/><path class="b" d="M595.14,485.413a4.223,4.223,0,0,0-1.84.144l1.355-5.467,1.658.409A20.432,20.432,0,0,1,595.14,485.413Z" transform="translate(-203.35 -193.798)"/><path class="i" d="M588.778,477.3l-16.817-2.847a4.581,4.581,0,0,0-3.529.825,4.763,4.763,0,0,0-2.173,4.165,4.6,4.6,0,0,0,4.005,4.142l16.863,2.393S590.171,478.553,588.778,477.3Z" transform="translate(-196.783 -192.413)"/><path class="b" d="M532.33,474.022l5.058-.182,21.8,3.415a1.2,1.2,0,0,1,1,1.416h0a1.2,1.2,0,0,1-1.371.954l-22.193-3.566Z" transform="translate(-188.545 -192.281)"/><path class="j" d="M531.92,473.824l5.05-.174,21.807,3.407a1.2,1.2,0,0,1,.992,1.4h0a1.2,1.2,0,0,1-1.363.962l-22.2-3.574Z" transform="translate(-188.446 -192.234)"/><path class="k" d="M706.58,612.186l-33.006,40.078s-1.454-1.688-3.907-4.581c-13.705-16.075-58.8-69.313-58.8-73.826,0-5.3-23.1-27.683-23.1-27.683s-20.747-17.415-9.435-71.69,38.192,51.882,37.253,58.954,15.083,25.934,15.083,25.934,20.277,9.9,30.651,20.747c7.3,7.632,26.736,20.4,37.609,27.259C703.513,610.316,706.58,612.186,706.58,612.186Z" transform="translate(-198.894 -188.7)"/><path class="b" d="M736.953,659.748l-33.006,40.078s-1.454-1.689-3.907-4.581c.53-11.222,24.23-35.981,28.425-39.745a3.029,3.029,0,0,1,.833-.53C733.886,657.878,736.953,659.748,736.953,659.748Z" transform="translate(-229.268 -236.262)"/><path class="l" d="M752,666.571s-15.091-14.144-19.8-9.9-34.422,35.361-27.349,43.379,49.5,41.479,49.5,41.479Z" transform="translate(-230.173 -236.482)"/><path class="b" d="M752,666.571s-15.091-14.144-19.8-9.9-34.422,35.361-27.349,43.379,49.5,41.479,49.5,41.479Z" transform="translate(-230.173 -236.482)"/><path class="k" d="M900.71,489.333s-14.727,14.212-33.172,29.629l-.7.575-1.075.893h0c-29.424,24.336-67.344,50.6-71.251,28.122a31.25,31.25,0,0,1-.053-8.852c.045-.432.106-.878.167-1.333s.121-.878.167-1.31a148.53,148.53,0,0,0,1.219-17.075v-2.862A167.34,167.34,0,0,0,783.9,456.145c-.454-1.151-.916-2.272-1.363-3.339h0a132.5,132.5,0,0,0-11.986-22.882s8.761-5.3,20.906-12.115c4.46-2.484,9.366-5.156,14.47-7.837,28.016-14.689,61.7-29.379,57.039-12.115-2.2,8.17-.159,19.013,3.9,30.363.227.628.454,1.242.689,1.863a186.636,186.636,0,0,0,9.086,20.058l.227.439c4.869,9.328,10.116,18.044,14.462,24.821,1.045,1.635,2.037,3.165,2.961,4.543C898.1,485.774,900.71,489.333,900.71,489.333Z" transform="translate(-246.388 -171.936)"/><path class="b" d="M867.6,430.083c-.219.326-.454.651-.689.969-7.072,9.616-15.257,15.341-24.987,18.566a81.455,81.455,0,0,1-22.541,3.619c-2.082.076-4.21.114-6.406.114a128.09,128.09,0,0,1-15.144-.871c-2.643-.416-5.406,1.363-8.079,2.665-1.991.962-3.937,1.666-5.755,1-.454-1.151-.916-2.272-1.363-3.339h0a132.5,132.5,0,0,0-11.986-22.882s8.761-5.3,20.906-12.115c4.46-2.484,9.366-5.156,14.47-7.837,28.016-14.689,61.7-29.379,57.039-12.115-2.2,8.17-.159,19.013,3.9,30.363C867.138,428.849,867.365,429.462,867.6,430.083Z" transform="translate(-246.413 -171.936)"/><path class="k" d="M869.978,360.838c0,1.105,0,2.2-.076,3.286a72.2,72.2,0,0,1-83.593,68.033,69.281,69.281,0,0,1-7.572-1.62,71.114,71.114,0,0,1-7.118-2.34h0a72.281,72.281,0,0,1-36.883-102.674l.636-1.113a72.236,72.236,0,0,1,134.6,36.428Z" transform="translate(-235.456 -147.304)"/><path class="b" d="M908.285,516.265S793.708,627.064,802.2,565.3a153.032,153.032,0,0,0,1.408-21.247,186.89,186.89,0,0,1,12.653-14.114l16.1-11.638a90.151,90.151,0,0,1,57.365-17.234,41.648,41.648,0,0,1,9.177,1.265C904.295,510.791,908.285,516.265,908.285,516.265Z" transform="translate(-253.964 -198.868)"/><path class="l" d="M978.474,707.4c-4.195,1.249-8.488,2.332-12.819,3.279-2.135.477-4.286.916-6.436,1.325-3.657.7-7.329,1.333-10.979,1.908-18.279,2.87-36.724,4.732-55.275,6.057l-3.029.2-1.863.121c-2.832.189-5.664.356-8.488.515-11.32.636-22.655,1.1-33.99,1.514-8.329.288-16.575.53-24.858.757l-16.847.492-4.354.129-1.908.053q-7.481.227-14.977.432l-5.8.167-10.775.3-2.272.061c-.606-5.346-1.719-15.06-2.9-24.76h0l-.272-2.272c-1.3-10.7-2.65-20.974-3.43-24.866-1.885-9.427,0-48.566,0-48.566l.2-.326h0l.893-1.514c4.46-7.443,21-35.929,20.588-48.172-.242-7.307,6.815-17.877,13.629-26.4.893-1.106,1.779-2.181,2.65-3.2,5.429-6.383,10.078-10.926,10.078-10.926l16.09-11.645a90.263,90.263,0,0,1,57.372-17.218c6.057.311,10.888,1.159,12.115,2.983h0c.522.3,12.259,7.034,25.131,22.072a132.768,132.768,0,0,1,16.264,23.806c.136.242.273.492.4.757,0,0,29.235,48.566,33.006,77.8s9.435,53.276,9.435,53.276S976.671,694.773,978.474,707.4Z" transform="translate(-242.944 -199.786)"/><path class="b" d="M890.441,693.023c-2.567,4.172-.106,25.434,2.627,39-2.832.189-5.664.356-8.488.515-11.32.636-22.655,1.1-33.99,1.514-8.329.288-16.575.53-24.858.757l-16.847.492-4.354.129-1.908.053c.886-3.2,1.06-6.55-1.295-8.041-5.187-3.3-15.091-24.525-15.091-24.525s-8.48,1.893-9.427-67.39a100.11,100.11,0,0,1,4.217-31.385,77.333,77.333,0,0,1,3.566-9.344h0A73.008,73.008,0,0,1,796.3,576.712h0A75.1,75.1,0,0,1,832.9,554a60.806,60.806,0,0,1,10.729-.818h.091a55.607,55.607,0,0,1,24.609,6.057,64.069,64.069,0,0,1,9.321,5.687,74.662,74.662,0,0,1,7.814,6.678c26.441,25.744,32.7,65.943,16.363,99.055C896.619,681.264,891.9,690.646,890.441,693.023Z" transform="translate(-247.901 -211.544)"/><path class="b" d="M897.915,697.987c-2.325,3.786-.53,21.512,1.855,34.906l-3.029.2-1.863.121c-2.832.189-5.664.356-8.488.515-11.32.636-22.655,1.1-33.99,1.514-8.329.288-16.575.53-24.858.757l-16.847.492a4.523,4.523,0,0,0-1.9-4.089,11.738,11.738,0,0,1-2.514-2.461c-.22-.265-.447-.553-.674-.848-5.247-6.966-11.9-21.2-11.9-21.2s-8.488,1.885-9.435-67.389c-.3-22.579,5.543-39.1,13.561-51.118a75.2,75.2,0,0,1,42.546-30.454,57.388,57.388,0,0,1,28.7,2.34,58.316,58.316,0,0,1,10.389,4.839,71.989,71.989,0,0,1,12.289,9.321l1.211,1.158c26.441,25.744,32.688,65.943,16.355,99.055C904.093,686.228,899.376,695.61,897.915,697.987Z" transform="translate(-249.719 -212.737)"/><path class="l" d="M892.937,693.008c-2.559,4.165-.121,25.313,2.6,38.881l-1.863.121c-2.832.189-5.664.356-8.488.515-11.32.636-22.655,1.1-33.99,1.514-8.329.288-16.575.53-24.858.757l-16.847.492-4.354.129c.666-2.446.916-4.967-.061-6.678a3.655,3.655,0,0,0-.674-.848,2.961,2.961,0,0,0-.583-.462c-5.187-3.3-15.091-24.525-15.091-24.525s-8.48,1.893-9.427-67.39c-.348-25.941,7.42-43.917,17.279-56.2a75.223,75.223,0,0,1,38.828-25.373,61.591,61.591,0,0,1,8.844-.818h.091a55.743,55.743,0,0,1,25.305,5.452,68.79,68.79,0,0,1,18.331,13.039c.878.856,1.741,1.726,2.567,2.612,24.23,25.813,29.591,64.437,13.8,96.443C899.116,681.249,894.4,690.63,892.937,693.008Z" transform="translate(-248.512 -211.529)"/><path class="b" d="M838.625,676.39s-46.529,33.021-42.561,37.564S838.625,676.39,838.625,676.39Z" transform="translate(-252.525 -241.463)"/><path class="b" d="M934.238,689.187s-14.538-12.948-13.485-7.928S934.238,689.187,934.238,689.187Z" transform="translate(-282.847 -242.364)"/><path class="b" d="M895.556,788.48c-11.32.636-22.655,1.1-33.99,1.514-19.407-2.271-39.586-5.611-39.586-5.611C823.729,783.362,885.644,782.127,895.556,788.48Z" transform="translate(-258.876 -267.484)"/><path class="b" d="M1030.33,769.059c-2.135.477-4.286.916-6.436,1.325-.84-13.546-1.174-25.214-1.174-25.214A240.391,240.391,0,0,1,1030.33,769.059Z" transform="translate(-307.619 -258.164)"/><path class="b" d="M785.754,782.7l-5.8.167c-4.619-12.615-8.586-27.577-10.207-33.929-.5-1.961-.757-3.1-.757-3.1l.719,1.514C772.095,752.319,780,768.917,785.754,782.7Z" transform="translate(-246.01 -258.324)"/><path class="b" d="M868.374,386.645a71.744,71.744,0,0,1-9.268,16.953c.227.628.454,1.242.689,1.863a186.607,186.607,0,0,0,9.086,20.058l.227.439c.394,3.029.939,6.057,1.567,9.01q-17.264.909-34.565.8c-5.013,0-10.1-.144-14.879-1.643a25.745,25.745,0,0,1-5.633-2.559,28.3,28.3,0,0,1-4.013-2.945,34.073,34.073,0,0,1-11.04-21.7c-.689-6.5.3-13.243-1.59-19.505a21.333,21.333,0,0,0-.757-2.052,22.625,22.625,0,0,0-17.658-13.432,4.838,4.838,0,0,0-3.286.447,5.49,5.49,0,0,0-1.779,2.756l-7.807,20.361c-5.558,1.393-9.48-5.868-9.018-11.577s3.029-11.555,1.128-16.961c-.583-1.673-1.575-3.2-2-4.907-1.689-6.746,5.565-12.736,5.626-19.687.045-5.717-4.846-10.336-10.04-12.713-4.763-2.181-10.025-3.12-14.8-5.247a72.235,72.235,0,0,1,134.575,36.451c0,1.105,0,2.2-.076,3.286a71.782,71.782,0,0,1-4.695,22.511Z" transform="translate(-238.623 -147.313)"/><path class="m" d="M796.527,259.3c-4.823-.485-10.124-.606-14.031,2.272-4.1,3.029-5.467,8.45-8.193,12.759-5.2,8.238-15.015,12-23.3,17.128s-16.128,14.281-13.357,23.624c5.1,2.574,10.9,3.475,16.09,5.853s10.086,7,10.04,12.713c-.061,6.951-7.314,12.94-5.626,19.687.424,1.711,1.416,3.233,2,4.907,1.885,5.406-.666,11.252-1.128,16.961s3.46,12.971,9.018,11.577l7.859-20.361a5.491,5.491,0,0,1,1.779-2.756,4.839,4.839,0,0,1,3.286-.447A22.542,22.542,0,0,1,799.321,378.7c1.885,6.262.9,13,1.59,19.505,1.264,11.994,9.192,23.594,20.7,27.206,4.778,1.514,9.843,1.613,14.879,1.643q17.287.129,34.566-.8c-2.839-13.357-4-28.114,2.885-39.9,2.945-5.043,7.193-9.2,10.434-14.061,5.3-7.92,7.708-17.377,9.654-26.7,1.514-7.065,2.749-14.288,2.082-21.474C895,312.088,888.6,301.26,882.361,290.9c-3.286-5.459-6.739-11.093-12.032-14.621-11.009-7.33-24.5-2.733-36.269-6.943C821.559,264.877,810.133,260.682,796.527,259.3Z" transform="translate(-238.262 -140.123)"/><g class="n" transform="translate(498.82 168.254)"><path d="M767.313,388.681a15.6,15.6,0,0,0-.492-7.216c-.53-1.514-1.386-2.915-1.863-4.445a9.518,9.518,0,0,0-.129,4.838c.424,1.711,1.416,3.233,1.991,4.907A11.685,11.685,0,0,1,767.313,388.681Z" transform="translate(-743.758 -337.025)"/><path d="M763.423,346.7a11.559,11.559,0,0,0,.348-2.65c.045-5.709-4.838-10.336-10.033-12.713s-10.987-3.279-16.09-5.853a13.119,13.119,0,0,1-.31-1.28,13.9,13.9,0,0,0,.31,6.58c5.1,2.574,10.9,3.475,16.09,5.853C758.108,338.632,762.234,342.221,763.423,346.7Z" transform="translate(-737.082 -324.2)"/><path d="M843.515,453.263c-5.005,0-10.093-.144-14.871-1.643-11.509-3.612-19.437-15.212-20.7-27.206-.689-6.5.3-13.236-1.59-19.505a22.541,22.541,0,0,0-18.384-15.484,4.837,4.837,0,0,0-3.286.447,5.436,5.436,0,0,0-1.779,2.756L775.1,412.988c-4.467,1.121-7.875-3.347-8.806-8.109-.083.613-.167,1.227-.212,1.832-.469,5.709,3.46,12.971,9.018,11.577l7.86-20.361a5.437,5.437,0,0,1,1.779-2.756,4.838,4.838,0,0,1,3.286-.447,22.541,22.541,0,0,1,18.354,15.484c1.885,6.27.9,13,1.59,19.505,1.264,11.994,9.192,23.594,20.7,27.206,4.778,1.514,9.843,1.613,14.871,1.643q17.3.129,34.573-.757c-.363-1.734-.7-3.491-1.007-5.255Q860.317,453.376,843.515,453.263Z" transform="translate(-744.114 -340.011)"/><path d="M936.278,361.487c-1.953,9.321-4.369,18.778-9.654,26.7-3.241,4.861-7.489,9.018-10.434,14.061-4.21,7.2-5.406,15.515-5.058,23.942a39.9,39.9,0,0,1,5.058-18.642c2.946-5.043,7.193-9.2,10.434-14.061,5.3-7.92,7.7-17.377,9.654-26.7,1.378-6.58,2.574-13.3,2.2-20A97.812,97.812,0,0,1,936.278,361.487Z" transform="translate(-779.33 -329.685)"/></g></g></svg>